<?xml version="1.0" encoding="UTF-8" standalone="no"?>
<!DOCTYPE svg PUBLIC "-//W3C//DTD SVG 1.1//EN" "http://www.w3.org/Graphics/SVG/1.1/DTD/svg11.dtd">
<svg xmlns="http://www.w3.org/2000/svg" version="1.1" viewBox="0 0 1320 596" width="1320.0pt" height="596.0pt">
<path d="M 0.00 0.00 L 1320.00 0.00 L 1320.00 596.00 L 0.00 596.00 L 0.00 0.00 Z" fill="#ffffff" />
<path d="M 261.20 85.63 C 271.90 84.95 282.31 84.03 293.00 84.92 C 301.65 85.07 310.02 86.19 318.52 87.62 C 326.05 88.52 333.20 90.70 340.52 92.52 C 348.12 94.33 355.48 97.50 362.89 100.11 C 370.09 102.99 377.02 106.61 383.98 110.03 C 393.16 115.38 402.31 120.68 410.63 127.33 C 418.08 132.49 424.50 138.75 431.19 144.81 C 435.49 148.81 439.27 153.42 443.29 157.70 C 448.09 162.77 451.85 168.42 456.09 173.93 C 460.28 179.35 463.41 185.18 467.04 190.97 C 470.80 196.91 473.41 203.19 476.55 209.46 C 479.59 215.50 481.52 221.79 483.92 228.08 C 486.79 235.46 488.28 243.04 490.38 250.79 C 497.70 284.29 497.09 319.88 487.87 352.96 C 485.81 361.86 482.20 370.47 479.03 379.05 C 474.60 388.77 470.23 398.40 464.38 407.37 C 459.41 416.19 453.18 424.01 447.04 432.02 C 440.16 439.83 433.39 447.66 425.44 454.42 C 418.78 460.94 411.22 466.21 403.78 471.78 C 398.87 475.29 393.52 478.20 388.40 481.42 C 383.31 484.61 377.89 486.93 372.52 489.58 C 364.35 493.77 355.41 496.59 346.78 499.72 C 336.27 502.66 325.85 505.61 314.98 506.91 C 304.38 508.89 293.74 509.08 283.00 509.48 C 272.01 509.10 261.08 508.82 250.23 506.79 C 240.65 505.71 231.52 503.01 222.22 500.62 C 216.48 499.01 210.93 496.66 205.30 494.70 C 198.78 492.45 192.92 489.22 186.69 486.31 C 180.17 483.32 174.45 479.39 168.27 475.75 C 162.43 472.29 157.45 468.11 151.93 464.10 C 146.89 460.48 142.57 456.18 137.96 452.07 C 131.39 446.38 125.74 439.53 119.87 433.11 C 113.02 424.45 106.30 415.75 100.86 406.13 C 96.06 398.87 92.60 390.99 88.81 383.19 C 86.04 377.44 84.12 371.20 81.82 365.21 C 79.26 358.56 77.93 351.83 76.06 344.96 C 74.19 338.16 73.55 331.43 72.39 324.47 C 71.10 316.94 71.15 309.63 70.66 302.01 C 70.23 294.94 70.95 288.18 71.21 281.00 C 71.44 273.85 72.86 267.03 73.85 259.97 C 74.81 252.67 76.98 245.89 78.71 238.75 C 80.36 231.96 83.00 225.86 85.32 219.23 C 87.48 212.99 90.57 207.32 93.36 201.37 C 96.68 194.07 101.26 187.37 105.41 180.40 C 109.58 174.04 114.34 168.02 118.96 161.97 C 125.84 154.16 132.61 146.34 140.55 139.58 C 147.21 133.06 154.78 127.78 162.21 122.22 C 166.92 118.84 172.06 116.05 176.97 112.96 C 182.91 109.20 189.19 106.58 195.46 103.45 C 201.50 100.41 207.79 98.47 214.09 96.08 C 221.86 93.08 230.21 91.41 238.27 89.26 C 245.82 87.69 253.55 86.69 261.20 85.63 Z" fill="#ec4636" />
<path d="M 351.25 132.74 C 375.86 139.07 400.45 145.56 425.03 151.99 C 408.72 163.63 392.37 175.22 376.04 186.84 C 384.67 194.33 392.56 202.49 399.24 211.78 C 424.76 245.98 433.43 291.53 422.65 332.79 C 412.56 373.24 383.92 408.25 346.45 426.45 C 307.33 445.96 259.44 446.08 220.23 426.77 C 183.14 409.02 154.59 374.81 143.93 335.07 C 138.88 316.92 137.66 297.66 139.93 278.98 C 143.11 253.33 153.36 228.68 169.32 208.36 C 182.37 191.61 199.22 177.72 218.20 168.20 C 238.83 157.69 261.91 152.54 285.04 152.82 C 288.01 153.28 290.33 150.20 292.58 148.61 C 298.69 143.87 304.89 137.79 312.04 134.94 C 324.51 129.89 338.27 129.39 351.25 132.74 Z" fill="#ffffff" />
<path d="M 330.17 141.39 C 336.94 140.22 343.50 141.16 350.07 142.91 C 366.07 147.11 382.09 151.26 398.08 155.48 C 360.99 181.86 323.84 208.34 286.70 234.64 C 308.70 232.66 331.33 239.72 348.66 253.33 C 361.85 263.78 371.12 278.55 374.56 295.05 C 378.23 310.92 376.35 326.89 371.43 342.24 C 365.79 359.64 354.99 375.29 340.49 386.49 C 328.39 395.95 313.93 402.00 298.80 404.50 C 278.11 408.15 256.68 404.46 237.36 396.67 C 221.86 390.46 208.00 380.47 197.74 367.25 C 185.45 351.58 179.69 331.80 179.99 312.01 C 180.35 294.57 184.43 276.96 192.41 261.41 C 202.77 241.19 219.03 224.70 236.51 210.51 C 262.52 189.58 288.60 168.53 314.61 147.64 C 319.19 143.90 324.50 142.55 330.17 141.39 Z" fill="#f87530" />
<path d="M 634.01 217.05 C 643.48 217.80 652.23 218.15 661.11 221.88 C 669.89 225.32 677.24 231.88 681.92 240.03 C 687.09 249.88 687.85 260.66 686.54 271.55 C 683.32 289.35 673.97 303.90 662.33 317.37 C 658.25 322.61 653.39 327.03 648.75 331.75 C 643.31 337.44 636.82 341.77 631.84 347.95 C 651.22 347.43 670.62 347.99 690.00 347.86 C 689.97 356.97 689.93 366.08 690.00 375.19 C 685.00 375.67 680.01 375.57 675.00 375.54 C 644.02 375.50 612.27 375.61 581.37 375.50 C 580.59 369.76 581.29 363.80 580.98 358.00 C 581.17 356.01 580.40 352.64 582.35 351.40 C 593.40 342.08 604.04 332.46 614.73 322.74 C 627.41 310.37 640.32 297.45 648.60 281.57 C 651.90 274.88 654.13 266.94 652.59 259.48 C 651.77 255.68 650.24 251.49 646.99 249.10 C 638.54 242.89 625.44 243.60 617.79 250.81 C 611.69 257.58 611.34 265.60 611.05 274.25 C 605.19 275.18 599.04 274.63 593.00 274.63 C 588.70 274.38 584.25 274.96 580.04 274.19 C 580.18 270.47 580.60 266.77 580.90 263.06 C 581.42 247.40 590.59 232.08 604.08 224.13 C 613.34 218.96 623.57 217.53 634.01 217.05 Z" fill="#f87530" />
<path d="M 775.06 218.85 C 785.38 220.86 794.91 226.33 801.71 234.36 C 807.36 241.29 810.59 250.35 812.10 259.07 C 801.93 261.36 792.03 264.74 781.83 266.83 C 781.00 262.92 780.41 259.14 778.43 255.59 C 773.50 244.44 756.85 241.46 747.46 248.49 C 743.59 251.03 741.47 255.43 739.41 259.46 C 734.94 269.55 733.76 281.34 733.82 292.27 C 736.54 288.42 739.20 283.79 742.82 280.75 C 748.20 276.48 754.31 273.32 761.21 272.48 C 769.11 271.54 778.02 271.47 785.52 274.48 C 795.64 278.11 804.02 286.00 808.00 296.03 C 814.42 311.39 812.74 329.50 806.73 344.73 C 800.72 359.92 787.34 371.39 771.60 375.56 C 765.28 377.37 758.54 377.34 751.99 377.18 C 740.75 377.02 729.15 372.83 720.92 365.07 C 715.57 359.70 711.34 353.31 708.89 346.11 C 703.27 330.27 701.96 312.70 702.19 296.00 C 702.90 288.11 702.85 280.30 704.47 272.54 C 705.65 264.24 708.43 256.41 711.77 248.76 C 716.99 237.99 725.02 228.25 735.94 222.95 C 747.80 217.12 762.24 216.18 775.06 218.85 Z" fill="#f87530" />
<path d="M 898.55 221.46 C 906.46 224.50 914.52 229.59 919.25 236.79 C 924.53 244.14 926.53 254.11 926.82 263.01 C 926.48 273.80 923.08 284.66 918.25 294.28 C 913.76 303.20 907.66 310.65 901.22 318.21 C 895.79 324.10 889.91 329.59 884.26 335.26 C 879.95 339.74 874.77 343.15 870.67 347.88 C 888.10 347.72 905.53 347.94 922.96 347.85 C 923.11 356.98 922.96 366.11 923.24 375.24 C 907.50 375.60 891.75 375.37 876.00 375.46 C 857.24 375.41 838.47 375.53 819.70 375.35 C 819.64 369.23 819.77 363.11 819.67 357.00 C 819.72 355.42 819.56 353.66 820.08 352.16 C 822.78 349.48 826.10 347.47 828.95 344.93 C 840.94 334.67 852.93 324.28 864.10 313.11 C 873.16 303.59 882.10 292.93 888.22 281.24 C 892.32 273.06 894.18 263.93 890.96 255.09 C 889.19 250.21 884.97 247.14 880.07 245.83 C 870.93 243.31 860.26 245.50 855.10 254.04 C 851.03 260.27 850.66 267.08 850.93 274.30 C 840.47 274.91 829.93 274.37 819.46 274.49 C 819.16 261.82 820.82 249.71 828.05 239.00 C 833.22 230.71 841.15 224.58 850.30 221.25 C 865.86 215.67 882.99 216.01 898.55 221.46 Z" fill="#f87530" />
<path d="M 1113.96 219.16 C 1121.64 218.68 1129.24 218.67 1136.48 221.61 C 1136.29 229.74 1136.02 237.85 1136.13 246.00 C 1130.79 244.95 1124.71 244.08 1119.36 245.33 C 1116.71 246.06 1115.15 247.93 1114.49 250.55 C 1113.54 254.85 1114.09 259.57 1114.02 263.97 C 1120.57 264.03 1127.12 263.99 1133.67 263.99 C 1133.71 272.42 1133.62 280.86 1133.86 289.29 C 1127.26 289.50 1120.64 289.43 1114.03 289.31 C 1113.97 312.54 1114.04 335.77 1114.06 359.00 C 1114.04 364.07 1114.02 369.13 1114.26 374.19 C 1104.54 374.26 1094.80 374.25 1085.08 374.19 C 1085.36 345.89 1085.11 317.57 1085.23 289.26 C 1080.49 289.40 1075.76 289.46 1071.02 289.35 C 1071.00 280.90 1071.04 272.44 1071.02 263.99 C 1075.79 263.98 1080.57 263.96 1085.34 263.96 C 1085.03 253.21 1085.04 238.96 1092.19 230.19 C 1097.44 223.07 1105.52 220.35 1113.96 219.16 Z" fill="#30b6f9" />
<path d="M 981.96 220.23 C 991.61 219.97 1001.24 220.22 1010.89 220.45 C 1010.89 271.72 1010.77 323.01 1010.94 374.28 C 1001.28 374.15 991.64 374.70 981.97 374.35 C 981.90 323.08 982.02 271.56 981.96 220.23 Z" fill="#30b6f9" />
<path d="M 1041.23 220.29 C 1047.47 219.06 1053.87 219.79 1058.51 224.49 C 1065.28 230.70 1064.98 242.29 1058.71 248.72 C 1053.15 253.83 1044.96 255.30 1038.10 251.91 C 1028.07 247.68 1025.82 232.78 1033.20 225.19 C 1035.39 222.95 1038.19 221.10 1041.23 220.29 Z" fill="#30b6f9" />
<path d="M 1206.69 264.28 C 1219.38 269.06 1229.08 280.07 1233.10 292.92 C 1236.72 304.18 1236.59 315.37 1235.56 327.02 C 1212.43 327.15 1189.28 326.90 1166.15 327.17 C 1167.21 334.87 1169.79 342.95 1175.79 348.24 C 1182.91 353.70 1193.83 354.42 1201.33 349.31 C 1204.00 347.68 1205.44 345.24 1207.08 342.68 C 1215.70 342.76 1224.30 342.82 1232.92 342.59 C 1230.65 349.13 1228.12 355.24 1223.72 360.67 C 1219.23 366.02 1213.86 370.50 1207.50 373.45 C 1198.70 377.43 1188.67 377.55 1179.22 376.63 C 1165.36 374.70 1153.62 366.37 1146.62 354.36 C 1140.04 343.02 1138.74 330.84 1138.40 317.98 C 1139.33 302.94 1142.17 287.29 1153.16 276.11 C 1165.98 261.54 1188.93 257.29 1206.69 264.28 Z" fill="#30b6f9" />
<path d="M 1029.19 263.92 C 1039.16 264.04 1049.16 264.04 1059.13 263.94 C 1058.87 300.76 1059.21 337.60 1059.02 374.42 C 1049.04 374.07 1039.05 374.47 1029.07 374.17 C 1029.34 337.42 1029.10 300.67 1029.19 263.92 Z" fill="#30b6f9" />
<path d="M 268.51 271.71 C 275.78 270.48 283.15 271.44 290.05 273.93 C 299.62 277.20 308.48 283.59 313.35 292.62 C 317.37 300.08 318.34 308.50 317.63 316.86 C 316.66 325.29 314.28 333.38 309.38 340.40 C 303.82 348.50 295.84 354.78 286.26 357.31 C 277.60 359.79 268.41 359.20 259.97 356.19 C 251.92 353.56 244.70 349.19 239.86 342.10 C 234.51 334.41 233.11 325.16 233.98 315.98 C 235.14 304.23 239.14 292.10 247.31 283.32 C 252.90 277.13 260.26 273.01 268.51 271.71 Z" fill="#ffffff" />
<path d="M 1191.03 284.88 C 1195.38 285.07 1199.62 287.24 1202.59 290.38 C 1206.84 295.44 1207.75 301.45 1208.12 307.84 C 1194.32 307.96 1180.52 307.81 1166.72 307.99 C 1167.22 299.81 1170.83 291.49 1178.00 287.05 C 1182.09 284.62 1186.42 284.61 1191.03 284.88 Z" fill="#ffffff" />
<path d="M 752.46 300.50 C 758.11 299.43 764.58 299.64 769.83 302.17 C 774.00 304.55 777.38 308.71 778.66 313.36 C 781.89 323.85 779.49 336.75 771.69 344.70 C 765.27 350.95 754.19 351.50 746.41 347.67 C 738.81 343.37 735.74 334.26 735.01 326.04 C 733.78 315.20 741.22 302.48 752.46 300.50 Z" fill="#ffffff" />
<path d="M 947.21 343.30 C 952.77 342.40 958.30 342.59 962.93 346.16 C 971.40 352.32 971.20 366.64 962.93 372.87 C 958.04 376.68 950.78 377.01 945.15 374.88 C 938.63 372.39 934.89 365.77 934.97 358.96 C 935.34 351.84 940.30 345.32 947.21 343.30 Z" fill="#ec4636" />
</svg>