<?xml version="1.0" encoding="UTF-8" standalone="no"?>
<!DOCTYPE svg PUBLIC "-//W3C//DTD SVG 1.1//EN" "http://www.w3.org/Graphics/SVG/1.1/DTD/svg11.dtd">
<svg xmlns="http://www.w3.org/2000/svg" version="1.1" viewBox="0 0 1024 1024" width="1024.0pt" height="1024.0pt" xmlns:xlink="http://www.w3.org/1999/xlink">
<defs>
<path d="M 0.00 0.00 L 1024.00 0.00 L 1024.00 1024.00 L 0.00 1024.00 L 0.00 0.00 Z M 500.00 232.92 C 488.52 233.13 477.32 235.04 466.05 237.08 C 457.47 239.31 448.61 241.13 440.35 244.35 C 434.31 246.63 428.25 248.53 422.46 251.45 C 417.14 254.12 411.60 256.46 406.46 259.46 C 398.62 264.24 390.66 268.70 383.49 274.49 C 374.72 280.63 367.02 287.93 359.27 295.27 C 353.41 301.71 347.16 307.97 342.07 315.04 C 338.36 320.11 334.44 324.84 331.25 330.27 C 328.30 335.30 325.02 340.16 322.34 345.33 C 318.11 354.03 313.66 362.55 310.67 371.78 C 306.80 381.26 304.56 391.14 302.09 401.03 C 300.71 407.80 299.87 414.69 298.82 421.52 C 298.05 429.29 297.78 437.19 297.52 445.00 C 297.80 452.99 298.02 461.07 298.89 469.01 C 300.23 477.27 301.05 485.78 303.28 493.83 C 305.05 500.36 306.37 506.87 308.82 513.21 C 311.33 519.77 313.30 526.25 316.45 532.54 C 319.58 538.80 322.20 545.10 325.96 551.03 C 329.58 556.81 332.71 562.65 336.90 568.07 C 341.15 573.58 344.91 579.23 349.70 584.30 C 354.28 589.19 358.35 594.20 363.38 598.64 C 368.61 603.26 373.29 608.02 378.93 612.11 C 384.45 616.11 389.43 620.29 395.28 623.75 C 401.30 627.30 406.84 631.10 413.07 634.01 C 419.55 637.03 425.54 640.35 432.29 642.70 C 438.90 645.01 445.03 647.67 451.82 649.31 C 458.93 651.03 465.70 653.19 472.98 654.15 C 480.04 655.14 486.86 656.56 494.00 656.78 C 501.41 657.06 508.59 657.81 516.01 657.29 C 523.15 656.83 529.98 656.87 537.03 655.68 C 544.14 654.49 551.05 653.83 558.00 651.93 C 564.85 650.06 571.54 648.74 578.16 646.20 C 584.73 643.68 591.22 641.72 597.51 638.56 C 603.78 635.43 610.09 632.80 616.03 629.04 C 621.81 625.41 627.65 622.28 633.06 618.09 C 638.58 613.85 644.22 610.09 649.30 605.30 C 654.19 600.72 659.20 596.65 663.63 591.62 C 668.24 586.40 673.02 581.71 677.11 576.07 C 681.22 570.41 685.60 565.16 689.13 559.10 C 692.08 554.07 695.38 549.20 698.00 544.00 C 702.09 535.53 706.40 527.26 709.31 518.29 C 713.27 508.54 715.58 498.38 718.08 488.20 C 719.35 481.20 720.41 474.04 721.35 466.99 C 722.11 455.96 722.95 445.04 722.02 434.00 C 721.83 423.16 719.93 412.66 718.11 402.00 C 715.63 391.77 713.30 381.57 709.33 371.78 C 706.15 362.09 701.49 353.14 696.97 344.02 C 693.22 337.56 689.36 331.02 685.20 324.81 C 680.76 318.94 676.58 312.81 671.72 307.28 C 666.54 301.73 661.75 295.84 656.10 290.89 C 651.09 286.45 646.51 281.82 641.07 277.89 C 635.41 273.78 630.17 269.39 624.10 265.87 C 618.34 262.47 613.04 258.84 606.98 256.01 C 600.48 252.99 594.47 249.65 587.71 247.30 C 581.12 244.99 575.01 242.35 568.23 240.70 C 561.10 238.97 554.32 236.81 547.02 235.85 C 541.03 235.03 535.04 233.80 529.01 233.39 C 519.31 232.90 509.71 232.04 500.00 232.92 Z M 189.11 743.21 C 191.74 743.52 194.35 743.59 197.00 743.51 C 204.62 743.40 212.47 744.25 220.02 743.25 C 220.34 734.60 220.65 726.55 226.77 719.80 C 234.18 712.75 246.96 711.94 255.39 717.60 C 259.14 719.97 260.77 724.36 261.64 728.50 C 263.07 736.14 260.97 743.75 257.62 750.60 C 249.17 766.76 236.13 779.64 223.22 792.23 C 212.73 801.80 202.17 811.22 191.38 820.45 C 189.76 821.65 190.12 823.20 189.99 824.98 C 190.03 831.43 190.13 837.88 190.02 844.33 C 217.00 844.58 244.02 844.39 271.00 844.44 C 280.32 844.30 289.68 844.75 298.97 844.15 C 298.93 835.06 298.96 825.97 298.99 816.88 C 279.58 817.01 260.17 816.52 240.77 816.95 C 246.31 810.32 253.38 805.52 259.24 799.24 C 268.49 790.41 276.72 780.44 283.80 769.80 C 290.97 758.23 296.80 743.81 296.03 730.00 C 295.87 719.56 292.50 708.54 284.89 701.06 C 276.75 692.34 265.68 688.25 254.01 687.01 C 250.35 686.72 246.68 686.18 243.00 686.12 C 233.00 686.55 223.45 687.84 214.41 692.44 C 204.44 697.71 196.75 707.33 192.76 717.77 C 189.61 726.17 189.85 734.24 189.11 743.21 Z M 428.51 743.40 C 438.96 743.27 449.45 743.73 459.90 743.24 C 459.52 735.01 460.30 727.34 465.71 720.77 C 471.47 713.75 481.66 712.50 489.93 715.03 C 495.01 716.55 499.11 720.33 500.49 725.53 C 503.30 734.44 500.80 743.59 496.58 751.60 C 491.41 760.83 485.03 769.13 477.93 776.95 C 471.31 784.77 463.55 791.15 456.17 798.18 C 449.76 803.75 443.42 809.40 436.90 814.86 C 434.36 817.04 431.42 818.84 429.08 821.23 C 428.38 828.79 428.98 836.63 428.77 844.26 C 463.23 844.35 497.69 844.48 532.15 844.15 C 531.96 835.07 532.09 825.99 531.96 816.91 C 514.49 816.94 497.03 816.82 479.56 816.91 C 484.06 811.88 489.62 808.13 494.26 803.26 C 501.45 795.97 508.96 789.31 515.20 781.16 C 526.62 767.58 534.67 750.89 535.70 733.01 C 535.70 723.32 533.41 712.41 527.33 704.63 C 522.90 698.43 515.85 693.99 508.94 691.03 C 496.53 686.35 482.62 685.05 469.57 687.54 C 459.51 689.24 450.05 693.52 442.76 700.76 C 434.55 709.51 429.47 720.99 428.85 733.00 C 428.61 736.47 428.46 739.92 428.51 743.40 Z M 342.82 761.39 C 342.66 750.35 343.90 738.64 348.37 728.44 C 350.37 724.48 352.63 719.97 356.42 717.47 C 365.89 710.41 382.46 713.36 387.46 724.57 C 389.40 728.08 390.07 731.83 390.81 735.72 C 394.07 735.13 397.30 734.46 400.48 733.48 C 407.29 731.42 414.23 729.87 421.08 727.91 C 418.77 715.93 414.09 704.47 404.01 697.00 C 395.67 690.33 385.53 687.39 375.00 686.66 C 362.89 685.99 350.85 687.85 340.51 694.51 C 332.26 699.74 326.40 707.26 321.80 715.76 C 315.26 728.95 312.25 743.36 311.78 758.02 C 311.04 765.66 310.97 773.35 311.64 780.99 C 312.25 791.96 313.80 803.17 317.42 813.59 C 320.57 823.70 327.21 833.05 336.12 838.86 C 345.43 844.71 356.11 846.69 367.00 846.18 C 387.96 846.59 408.04 833.18 415.71 813.67 C 421.64 798.53 423.33 781.16 417.27 765.77 C 413.48 755.71 405.23 747.57 395.18 743.78 C 387.07 740.46 377.52 740.36 368.97 741.74 C 362.73 742.64 357.37 745.62 352.37 749.33 C 348.43 752.37 345.67 757.35 342.82 761.39 Z M 694.58 733.05 C 689.75 733.05 684.92 733.01 680.09 733.02 C 680.25 741.41 680.13 749.81 680.08 758.20 C 684.87 758.26 689.65 758.23 694.44 758.12 C 694.38 786.45 694.63 814.79 694.28 843.12 C 703.91 843.12 713.53 843.14 723.16 843.10 C 722.83 836.40 722.95 829.71 722.96 823.00 C 722.95 801.40 722.94 779.79 722.92 758.19 C 729.47 758.28 736.01 758.15 742.55 758.29 C 742.44 749.85 742.43 741.42 742.42 732.99 C 735.92 733.05 729.41 733.06 722.91 733.07 C 722.92 728.79 722.61 724.37 723.24 720.14 C 723.71 717.64 725.00 715.39 727.51 714.51 C 732.83 712.54 739.63 713.83 745.07 714.80 C 745.14 706.77 744.87 698.67 745.48 690.67 C 735.07 687.10 723.18 686.98 712.80 690.75 C 704.84 693.63 698.87 700.46 696.52 708.54 C 694.26 716.24 694.38 725.08 694.58 733.05 Z M 590.98 689.48 C 591.03 740.71 590.94 791.99 590.99 843.19 C 600.59 843.42 610.18 843.07 619.78 843.16 C 619.42 803.79 619.76 764.38 619.61 725.00 C 619.71 713.22 619.54 701.43 619.73 689.65 C 610.14 689.51 600.57 689.16 590.98 689.48 Z M 650.37 689.40 C 647.31 690.22 644.45 691.98 642.24 694.24 C 636.07 700.81 636.65 712.55 643.48 718.46 C 649.25 723.38 658.40 723.89 664.76 719.78 C 673.61 714.65 675.06 700.40 667.41 693.59 C 662.95 689.02 656.41 688.08 650.37 689.40 Z M 841.70 811.75 C 833.19 811.94 824.68 811.85 816.17 811.83 C 810.28 823.68 792.78 825.00 783.69 816.30 C 778.16 810.72 776.18 803.67 774.96 796.12 C 798.07 795.87 821.19 796.16 844.31 795.96 C 845.73 784.49 845.46 773.11 842.01 762.00 C 838.51 750.90 830.81 740.99 820.42 735.57 C 805.11 727.44 785.38 728.57 770.81 737.79 C 761.69 743.93 754.72 752.97 751.48 763.51 C 746.70 778.61 746.46 795.28 750.42 810.58 C 753.48 822.28 760.69 832.57 770.81 839.20 C 778.68 844.00 787.81 846.24 797.00 846.05 C 806.67 846.09 816.14 843.86 823.91 837.89 C 832.91 831.52 838.50 822.15 841.70 811.75 Z M 638.41 733.03 C 638.34 769.71 638.64 806.42 638.27 843.10 C 648.18 843.25 658.10 843.03 668.01 843.24 C 668.12 806.52 667.81 769.76 668.08 733.05 C 658.19 732.99 648.30 733.01 638.41 733.03 Z M 556.34 812.35 C 548.78 814.55 543.36 822.17 544.11 830.04 C 544.76 834.85 547.16 840.03 551.57 842.47 C 558.48 846.77 569.11 846.07 574.33 839.38 C 579.88 832.98 579.46 821.70 572.91 816.12 C 568.37 811.86 562.23 811.24 556.34 812.35 Z" id="p0" />
<path d="M 500.00 232.92 C 509.71 232.04 519.31 232.90 529.01 233.39 C 535.04 233.80 541.03 235.03 547.02 235.85 C 554.32 236.81 561.10 238.97 568.23 240.70 C 575.01 242.35 581.12 244.99 587.71 247.30 C 594.47 249.65 600.48 252.99 606.98 256.01 C 613.04 258.84 618.34 262.47 624.10 265.87 C 630.17 269.39 635.41 273.78 641.07 277.89 C 646.51 281.82 651.09 286.45 656.10 290.89 C 661.75 295.84 666.54 301.73 671.72 307.28 C 676.58 312.81 680.76 318.94 685.20 324.81 C 689.36 331.02 693.22 337.56 696.97 344.02 C 701.49 353.14 706.15 362.09 709.33 371.78 C 713.30 381.57 715.63 391.77 718.11 402.00 C 719.93 412.66 721.83 423.16 722.02 434.00 C 722.95 445.04 722.11 455.96 721.35 466.99 C 720.41 474.04 719.35 481.20 718.08 488.20 C 715.58 498.38 713.27 508.54 709.31 518.29 C 706.40 527.26 702.09 535.53 698.00 544.00 C 695.38 549.20 692.08 554.07 689.13 559.10 C 685.60 565.16 681.22 570.41 677.11 576.07 C 673.02 581.71 668.24 586.40 663.63 591.62 C 659.20 596.65 654.19 600.72 649.30 605.30 C 644.22 610.09 638.58 613.85 633.06 618.09 C 627.65 622.28 621.81 625.41 616.03 629.04 C 610.09 632.80 603.78 635.43 597.51 638.56 C 591.22 641.72 584.73 643.68 578.16 646.20 C 571.54 648.74 564.85 650.06 558.00 651.93 C 551.05 653.83 544.14 654.49 537.03 655.68 C 529.98 656.87 523.15 656.83 516.01 657.29 C 508.59 657.81 501.41 657.06 494.00 656.78 C 486.86 656.56 480.04 655.14 472.98 654.15 C 465.70 653.19 458.93 651.03 451.82 649.31 C 445.03 647.67 438.90 645.01 432.29 642.70 C 425.54 640.35 419.55 637.03 413.07 634.01 C 406.84 631.10 401.30 627.30 395.28 623.75 C 389.43 620.29 384.45 616.11 378.93 612.11 C 373.29 608.02 368.61 603.26 363.38 598.64 C 358.35 594.20 354.28 589.19 349.70 584.30 C 344.91 579.23 341.15 573.58 336.90 568.07 C 332.71 562.65 329.58 556.81 325.96 551.03 C 322.20 545.10 319.58 538.80 316.45 532.54 C 313.30 526.25 311.33 519.77 308.82 513.21 C 306.37 506.87 305.05 500.36 303.28 493.83 C 301.05 485.78 300.23 477.27 298.89 469.01 C 298.02 461.07 297.80 452.99 297.52 445.00 C 297.78 437.19 298.05 429.29 298.82 421.52 C 299.87 414.69 300.71 407.80 302.09 401.03 C 304.56 391.14 306.80 381.26 310.67 371.78 C 313.66 362.55 318.11 354.03 322.34 345.33 C 325.02 340.16 328.30 335.30 331.25 330.27 C 334.44 324.84 338.36 320.11 342.07 315.04 C 347.16 307.97 353.41 301.71 359.27 295.27 C 367.02 287.93 374.72 280.63 383.49 274.49 C 390.66 268.70 398.62 264.24 406.46 259.46 C 411.60 256.46 417.14 254.12 422.46 251.45 C 428.25 248.53 434.31 246.63 440.35 244.35 C 448.61 241.13 457.47 239.31 466.05 237.08 C 477.32 235.04 488.52 233.13 500.00 232.92 Z M 603.05 334.84 C 619.37 323.22 635.72 311.62 652.04 299.99 C 628.30 293.76 604.55 287.57 580.80 281.36 C 566.19 277.27 550.80 277.47 536.90 283.91 C 528.48 288.08 521.83 295.76 513.98 300.70 C 491.38 300.52 468.99 304.71 448.57 314.57 C 413.78 330.81 386.20 361.46 373.75 397.80 C 362.58 429.73 363.24 465.74 375.59 497.23 C 388.42 530.44 413.96 558.37 445.88 574.12 C 480.04 591.35 521.12 593.87 557.20 581.25 C 592.58 569.12 622.59 542.66 639.12 509.12 C 656.36 474.96 658.87 433.89 646.25 397.80 C 637.86 373.35 622.69 351.58 603.05 334.84 Z" id="p1" />
<path d="M 580.80 281.36 C 604.55 287.57 628.30 293.76 652.04 299.99 C 635.72 311.62 619.37 323.22 603.05 334.84 C 622.69 351.58 637.86 373.35 646.25 397.80 C 658.87 433.89 656.36 474.96 639.12 509.12 C 622.59 542.66 592.58 569.12 557.20 581.25 C 521.12 593.87 480.04 591.35 445.88 574.12 C 413.96 558.37 388.42 530.44 375.59 497.23 C 363.24 465.74 362.58 429.73 373.75 397.80 C 386.20 361.46 413.78 330.81 448.57 314.57 C 468.99 304.71 491.38 300.52 513.98 300.70 C 521.83 295.76 528.48 288.08 536.90 283.91 C 550.80 277.47 566.19 277.27 580.80 281.36 Z M 513.71 382.64 C 550.85 356.33 587.99 329.85 625.11 303.47 C 611.01 299.78 596.90 296.10 582.80 292.41 C 576.46 290.77 570.63 288.96 564.01 288.88 C 558.50 288.74 553.17 290.05 548.02 291.90 C 543.91 293.44 540.57 296.49 537.17 299.19 C 513.74 318.08 490.29 336.94 466.84 355.82 C 449.27 369.78 433.14 385.25 421.86 404.87 C 412.28 421.49 407.37 440.88 406.99 460.01 C 406.69 479.80 412.45 499.58 424.74 515.25 C 435.00 528.47 448.86 538.45 464.35 544.67 C 483.77 552.49 505.24 556.17 526.02 552.46 C 541.07 549.95 555.45 543.90 567.49 534.49 C 581.99 523.29 592.80 507.63 598.43 490.22 C 603.24 475.20 605.17 459.54 601.76 443.99 C 598.57 427.81 589.93 413.28 577.31 402.69 C 559.81 388.16 536.41 380.62 513.71 382.64 Z" id="p2" />
<path d="M 564.01 288.88 C 570.63 288.96 576.46 290.77 582.80 292.41 C 596.90 296.10 611.01 299.78 625.11 303.47 C 587.99 329.85 550.85 356.33 513.71 382.64 C 536.41 380.62 559.81 388.16 577.31 402.69 C 589.93 413.28 598.57 427.81 601.76 443.99 C 605.17 459.54 603.24 475.20 598.43 490.22 C 592.80 507.63 581.99 523.29 567.49 534.49 C 555.45 543.90 541.07 549.95 526.02 552.46 C 505.24 556.17 483.77 552.49 464.35 544.67 C 448.86 538.45 435.00 528.47 424.74 515.25 C 412.45 499.58 406.69 479.80 406.99 460.01 C 407.37 440.88 412.28 421.49 421.86 404.87 C 433.14 385.25 449.27 369.78 466.84 355.82 C 490.29 336.94 513.74 318.08 537.17 299.19 C 540.57 296.49 543.91 293.44 548.02 291.90 C 553.17 290.05 558.50 288.74 564.01 288.88 Z M 495.51 419.70 C 487.48 420.99 480.35 424.86 474.80 430.79 C 466.29 439.66 462.17 451.95 460.98 463.99 C 460.11 473.17 461.51 482.41 466.85 490.10 C 471.70 497.19 478.92 501.56 486.97 504.20 C 495.41 507.19 504.58 507.79 513.24 505.32 C 523.56 502.59 532.01 495.54 537.57 486.55 C 541.68 480.10 543.76 472.43 544.63 464.88 C 545.34 456.52 544.38 448.08 540.35 440.62 C 535.48 431.59 526.63 425.20 517.05 421.93 C 510.15 419.44 502.78 418.48 495.51 419.70 Z" id="p3" />
<path d="M 495.51 419.70 C 502.78 418.48 510.15 419.44 517.05 421.93 C 526.63 425.20 535.48 431.59 540.35 440.62 C 544.38 448.08 545.34 456.52 544.63 464.88 C 543.76 472.43 541.68 480.10 537.57 486.55 C 532.01 495.54 523.56 502.59 513.24 505.32 C 504.58 507.79 495.41 507.19 486.97 504.20 C 478.92 501.56 471.70 497.19 466.85 490.10 C 461.51 482.41 460.11 473.17 460.98 463.99 C 462.17 451.95 466.29 439.66 474.80 430.79 C 480.35 424.86 487.48 420.99 495.51 419.70 Z" id="p4" />
<path d="M 243.00 686.12 C 246.68 686.18 250.35 686.72 254.01 687.01 C 265.68 688.25 276.75 692.34 284.89 701.06 C 292.50 708.54 295.87 719.56 296.03 730.00 C 296.80 743.81 290.97 758.23 283.80 769.80 C 276.72 780.44 268.49 790.41 259.24 799.24 C 253.38 805.52 246.31 810.32 240.77 816.95 C 260.17 816.52 279.58 817.01 298.99 816.88 C 298.96 825.97 298.93 835.06 298.97 844.15 C 289.68 844.75 280.32 844.30 271.00 844.44 C 244.02 844.39 217.00 844.58 190.02 844.33 C 190.13 837.88 190.03 831.43 189.99 824.98 C 190.12 823.20 189.76 821.65 191.38 820.45 C 202.17 811.22 212.73 801.80 223.22 792.23 C 236.13 779.64 249.17 766.76 257.62 750.60 C 260.97 743.75 263.07 736.14 261.64 728.50 C 260.77 724.36 259.14 719.97 255.39 717.60 C 246.96 711.94 234.18 712.75 226.77 719.80 C 220.65 726.55 220.34 734.60 220.02 743.25 C 212.47 744.25 204.62 743.40 197.00 743.51 C 194.35 743.59 191.74 743.52 189.11 743.21 C 189.85 734.24 189.61 726.17 192.76 717.77 C 196.75 707.33 204.44 697.71 214.41 692.44 C 223.45 687.84 233.00 686.55 243.00 686.12 Z" id="p5" />
<path d="M 508.94 691.03 C 515.85 693.99 522.90 698.43 527.33 704.63 C 533.41 712.41 535.70 723.32 535.70 733.01 C 534.67 750.89 526.62 767.58 515.20 781.16 C 508.96 789.31 501.45 795.97 494.26 803.26 C 489.62 808.13 484.06 811.88 479.56 816.91 C 497.03 816.82 514.49 816.94 531.96 816.91 C 532.09 825.99 531.96 835.07 532.15 844.15 C 497.69 844.48 463.23 844.35 428.77 844.26 C 428.98 836.63 428.38 828.79 429.08 821.23 C 431.42 818.84 434.36 817.04 436.90 814.86 C 443.42 809.40 449.76 803.75 456.17 798.18 C 463.55 791.15 471.31 784.77 477.93 776.95 C 485.03 769.13 491.41 760.83 496.58 751.60 C 500.80 743.59 503.30 734.44 500.49 725.53 C 499.11 720.33 495.01 716.55 489.93 715.03 C 481.66 712.50 471.47 713.75 465.71 720.77 C 460.30 727.34 459.52 735.01 459.90 743.24 C 449.45 743.73 438.96 743.27 428.51 743.40 C 428.46 739.92 428.61 736.47 428.85 733.00 C 429.47 720.99 434.55 709.51 442.76 700.76 C 450.05 693.52 459.51 689.24 469.57 687.54 C 482.62 685.05 496.53 686.35 508.94 691.03 Z" id="p6" />
<path d="M 375.00 686.66 C 385.53 687.39 395.67 690.33 404.01 697.00 C 414.09 704.47 418.77 715.93 421.08 727.91 C 414.23 729.87 407.29 731.42 400.48 733.48 C 397.30 734.46 394.07 735.13 390.81 735.72 C 390.07 731.83 389.40 728.08 387.46 724.57 C 382.46 713.36 365.89 710.41 356.42 717.47 C 352.63 719.97 350.37 724.48 348.37 728.44 C 343.90 738.64 342.66 750.35 342.82 761.39 C 345.67 757.35 348.43 752.37 352.37 749.33 C 357.37 745.62 362.73 742.64 368.97 741.74 C 377.52 740.36 387.07 740.46 395.18 743.78 C 405.23 747.57 413.48 755.71 417.27 765.77 C 423.33 781.16 421.64 798.53 415.71 813.67 C 408.04 833.18 387.96 846.59 367.00 846.18 C 356.11 846.69 345.43 844.71 336.12 838.86 C 327.21 833.05 320.57 823.70 317.42 813.59 C 313.80 803.17 312.25 791.96 311.64 780.99 C 310.97 773.35 311.04 765.66 311.78 758.02 C 312.25 743.36 315.26 728.95 321.80 715.76 C 326.40 707.26 332.26 699.74 340.51 694.51 C 350.85 687.85 362.89 685.99 375.00 686.66 Z M 361.43 769.44 C 351.82 771.35 345.88 779.78 344.09 788.94 C 343.25 796.87 345.15 805.60 349.95 812.05 C 355.24 819.17 365.94 820.46 373.87 817.87 C 379.74 815.98 383.39 811.40 386.05 806.07 C 389.42 798.39 390.12 789.57 387.46 781.56 C 386.11 777.22 382.74 773.47 378.90 771.13 C 373.65 768.57 367.08 768.47 361.43 769.44 Z" id="p7" />
<path d="M 745.48 690.67 C 744.87 698.67 745.14 706.77 745.07 714.80 C 739.63 713.83 732.83 712.54 727.51 714.51 C 725.00 715.39 723.71 717.64 723.24 720.14 C 722.61 724.37 722.92 728.79 722.91 733.07 C 729.41 733.06 735.92 733.05 742.42 732.99 C 742.43 741.42 742.44 749.85 742.55 758.29 C 736.01 758.15 729.47 758.28 722.92 758.19 C 722.94 779.79 722.95 801.40 722.96 823.00 C 722.95 829.71 722.83 836.40 723.16 843.10 C 713.53 843.14 703.91 843.12 694.28 843.12 C 694.63 814.79 694.38 786.45 694.44 758.12 C 689.65 758.23 684.87 758.26 680.08 758.20 C 680.13 749.81 680.25 741.41 680.09 733.02 C 684.92 733.01 689.75 733.05 694.58 733.05 C 694.38 725.08 694.26 716.24 696.52 708.54 C 698.87 700.46 704.84 693.63 712.80 690.75 C 723.18 686.98 735.07 687.10 745.48 690.67 Z" id="p8" />
<path d="M 590.98 689.48 C 600.57 689.16 610.14 689.51 619.73 689.65 C 619.54 701.43 619.71 713.22 619.61 725.00 C 619.76 764.38 619.42 803.79 619.78 843.16 C 610.18 843.07 600.59 843.42 590.99 843.19 C 590.94 791.99 591.03 740.71 590.98 689.48 Z" id="p9" />
<path d="M 650.37 689.40 C 656.41 688.08 662.95 689.02 667.41 693.59 C 675.06 700.40 673.61 714.65 664.76 719.78 C 658.40 723.89 649.25 723.38 643.48 718.46 C 636.65 712.55 636.07 700.81 642.24 694.24 C 644.45 691.98 647.31 690.22 650.37 689.40 Z" id="p10" />
<path d="M 820.42 735.57 C 830.81 740.99 838.51 750.90 842.01 762.00 C 845.46 773.11 845.73 784.49 844.31 795.96 C 821.19 796.16 798.07 795.87 774.96 796.12 C 776.18 803.67 778.16 810.72 783.69 816.30 C 792.78 825.00 810.28 823.68 816.17 811.83 C 824.68 811.85 833.19 811.94 841.70 811.75 C 838.50 822.15 832.91 831.52 823.91 837.89 C 816.14 843.86 806.67 846.09 797.00 846.05 C 787.81 846.24 778.68 844.00 770.81 839.20 C 760.69 832.57 753.48 822.28 750.42 810.58 C 746.46 795.28 746.70 778.61 751.48 763.51 C 754.72 752.97 761.69 743.93 770.81 737.79 C 785.38 728.57 805.11 727.44 820.42 735.57 Z M 775.51 777.06 C 789.42 776.82 803.34 777.03 817.25 776.90 C 816.97 771.49 816.24 766.34 813.37 761.63 C 810.61 756.92 805.35 754.17 800.01 753.71 C 794.74 753.16 789.44 753.80 785.17 757.17 C 778.94 761.99 776.24 769.43 775.51 777.06 Z" id="p11" />
<path d="M 638.41 733.03 C 648.30 733.01 658.19 732.99 668.08 733.05 C 667.81 769.76 668.12 806.52 668.01 843.24 C 658.10 843.03 648.18 843.25 638.27 843.10 C 638.64 806.42 638.34 769.71 638.41 733.03 Z" id="p12" />
<path d="M 800.01 753.71 C 805.35 754.17 810.61 756.92 813.37 761.63 C 816.24 766.34 816.97 771.49 817.25 776.90 C 803.34 777.03 789.42 776.82 775.51 777.06 C 776.24 769.43 778.94 761.99 785.17 757.17 C 789.44 753.80 794.74 753.16 800.01 753.71 Z" id="p13" />
<path d="M 361.43 769.44 C 367.08 768.47 373.65 768.57 378.90 771.13 C 382.74 773.47 386.11 777.22 387.46 781.56 C 390.12 789.57 389.42 798.39 386.05 806.07 C 383.39 811.40 379.74 815.98 373.87 817.87 C 365.94 820.46 355.24 819.17 349.95 812.05 C 345.15 805.60 343.25 796.87 344.09 788.94 C 345.88 779.78 351.82 771.35 361.43 769.44 Z" id="p14" />
<path d="M 556.34 812.35 C 562.23 811.24 568.37 811.86 572.91 816.12 C 579.46 821.70 579.88 832.98 574.33 839.38 C 569.11 846.07 558.48 846.77 551.57 842.47 C 547.16 840.03 544.76 834.85 544.11 830.04 C 543.36 822.17 548.78 814.55 556.34 812.35 Z" id="p15" />
</defs>
<g stroke-width="10pt">
<use stroke="#ffffff" xlink:href="#p0" />
<use stroke="#ec4636" xlink:href="#p1" />
<use stroke="#ffffff" xlink:href="#p2" />
<use stroke="#f87530" xlink:href="#p3" />
<use stroke="#ffffff" xlink:href="#p4" />
<use stroke="#f87530" xlink:href="#p5" />
<use stroke="#f87530" xlink:href="#p6" />
<use stroke="#f87530" xlink:href="#p7" />
<use stroke="#30b6f9" xlink:href="#p8" />
<use stroke="#30b6f9" xlink:href="#p9" />
<use stroke="#30b6f9" xlink:href="#p10" />
<use stroke="#30b6f9" xlink:href="#p11" />
<use stroke="#30b6f9" xlink:href="#p12" />
<use stroke="#ffffff" xlink:href="#p13" />
<use stroke="#ffffff" xlink:href="#p14" />
<use stroke="#ec4636" xlink:href="#p15" />
</g>
<g>
<use fill="#ffffff" xlink:href="#p0" />
<use fill="#ec4636" xlink:href="#p1" />
<use fill="#ffffff" xlink:href="#p2" />
<use fill="#f87530" xlink:href="#p3" />
<use fill="#ffffff" xlink:href="#p4" />
<use fill="#f87530" xlink:href="#p5" />
<use fill="#f87530" xlink:href="#p6" />
<use fill="#f87530" xlink:href="#p7" />
<use fill="#30b6f9" xlink:href="#p8" />
<use fill="#30b6f9" xlink:href="#p9" />
<use fill="#30b6f9" xlink:href="#p10" />
<use fill="#30b6f9" xlink:href="#p11" />
<use fill="#30b6f9" xlink:href="#p12" />
<use fill="#ffffff" xlink:href="#p13" />
<use fill="#ffffff" xlink:href="#p14" />
<use fill="#ec4636" xlink:href="#p15" />
</g>
</svg>